<svg version="1.2" baseProfile="tiny-ps" xmlns="http://www.w3.org/2000/svg" viewBox="0 0 77 63" width="77" height="63">
	<title>Shape 1</title>
	<style>
		tspan { white-space:pre }
		.shp0 { fill: #a3bbc8 } 
		.shp1 { fill: #243f4d } 
	</style>
	<path id="Ellipse 2" class="shp0" d="M58.5 27.62C67.82 27.62 75.37 35.18 75.37 44.5C75.37 53.82 67.82 61.37 58.5 61.37C49.18 61.37 41.62 53.82 41.62 44.5C41.62 35.18 49.18 27.62 58.5 27.62Z" />
	<path id="Shape 1" class="shp1" d="M62.64 2L5.36 2C3.51 2 2 3.51 2 5.36L2 46.5C2 48.35 3.51 49.86 5.36 49.86L27.06 49.86L26.18 56.86L22.55 56.86C21.95 56.86 21.47 57.34 21.47 57.93C21.47 58.52 21.95 59 22.55 59L45.45 59C46.05 59 46.53 58.52 46.53 57.93C46.53 57.34 46.05 56.86 45.45 56.86L41.82 56.86L40.94 49.86L62.64 49.86C64.49 49.86 66 48.35 66 46.5L66 5.36C66 3.51 64.49 2 62.64 2ZM28.34 56.86L29.22 49.86L38.78 49.86L39.66 56.86L28.34 56.86ZM63.85 46.5C63.85 47.17 63.31 47.71 62.64 47.71L5.36 47.71C4.69 47.71 4.15 47.17 4.15 46.5L4.15 5.36C4.15 4.69 4.69 4.14 5.36 4.14L62.64 4.14C63.31 4.14 63.85 4.69 63.85 5.36L63.85 46.5L63.85 46.5ZM52.33 6.57L7.66 6.57C7.06 6.57 6.58 7.05 6.58 7.64L6.58 43.07C6.58 43.66 7.06 44.14 7.66 44.14L11.09 44.14C11.69 44.14 12.17 43.66 12.17 43.07C12.17 42.48 11.69 42 11.09 42L8.73 42L8.73 8.71L52.33 8.71C52.92 8.71 53.4 8.23 53.4 7.64C53.4 7.05 52.92 6.57 52.33 6.57ZM60.34 6.57L56.91 6.57C56.32 6.57 55.83 7.05 55.83 7.64C55.83 8.23 56.32 8.71 56.91 8.71L59.27 8.71L59.27 42L15.67 42C15.08 42 14.6 42.48 14.6 43.07C14.6 43.66 15.08 44.14 15.67 44.14L60.34 44.14C60.94 44.14 61.42 43.66 61.42 43.07L61.42 7.64C61.42 7.05 60.94 6.57 60.34 6.57ZM53.47 12.29C51.62 12.29 50.11 13.79 50.11 15.64C50.11 16.21 50.25 16.75 50.5 17.22L41.9 26.31C41.47 26.11 40.99 26 40.49 26C39.59 26 38.78 26.35 38.18 26.92L30.83 23.04C30.86 22.86 30.87 22.68 30.87 22.5C30.87 20.65 29.36 19.14 27.51 19.14C25.65 19.14 24.14 20.65 24.14 22.5C24.14 23.02 24.26 23.51 24.47 23.95L16.07 32.09C15.61 31.85 15.08 31.71 14.53 31.71C12.67 31.71 11.16 33.22 11.16 35.07C11.16 36.92 12.67 38.43 14.53 38.43C16.38 38.43 17.89 36.92 17.89 35.07C17.89 34.55 17.77 34.06 17.56 33.62L25.97 25.48C26.43 25.72 26.95 25.86 27.51 25.86C28.4 25.86 29.22 25.51 29.82 24.93L37.17 28.81C37.14 28.99 37.13 29.17 37.13 29.36C37.13 31.21 38.64 32.71 40.49 32.71C42.35 32.71 43.86 31.21 43.86 29.36C43.86 28.79 43.71 28.25 43.46 27.78L52.06 18.69C52.49 18.89 52.97 19 53.47 19C55.33 19 56.84 17.49 56.84 15.64C56.84 13.79 55.33 12.29 53.47 12.29ZM14.53 36.29C13.86 36.29 13.31 35.74 13.31 35.07C13.31 34.4 13.86 33.86 14.53 33.86C15.2 33.86 15.74 34.4 15.74 35.07C15.74 35.74 15.2 36.29 14.53 36.29ZM27.51 23.71C26.84 23.71 26.29 23.17 26.29 22.5C26.29 21.83 26.84 21.29 27.51 21.29C28.18 21.29 28.73 21.83 28.73 22.5C28.73 23.17 28.18 23.71 27.51 23.71ZM40.49 30.57C39.82 30.57 39.27 30.03 39.27 29.36C39.27 28.69 39.82 28.14 40.49 28.14C41.16 28.14 41.71 28.69 41.71 29.36C41.71 30.03 41.16 30.57 40.49 30.57ZM53.47 16.86C52.8 16.86 52.25 16.31 52.25 15.64C52.25 14.97 52.8 14.43 53.47 14.43C54.14 14.43 54.69 14.97 54.69 15.64C54.69 16.31 54.14 16.86 53.47 16.86ZM53.47 21.43C52.88 21.43 52.4 21.91 52.4 22.5L52.4 38.5C52.4 39.09 52.88 39.57 53.47 39.57C54.06 39.57 54.55 39.09 54.55 38.5L54.55 22.5C54.55 21.91 54.07 21.43 53.47 21.43ZM27.51 28.29C26.92 28.29 26.44 28.76 26.44 29.36L26.44 38.5C26.44 39.09 26.92 39.57 27.51 39.57C28.1 39.57 28.58 39.09 28.58 38.5L28.58 29.36C28.58 28.76 28.1 28.29 27.51 28.29ZM40.49 35.14C39.9 35.14 39.42 35.62 39.42 36.21L39.42 38.5C39.42 39.09 39.9 39.57 40.49 39.57C41.08 39.57 41.56 39.09 41.56 38.5L41.56 36.21C41.56 35.62 41.08 35.14 40.49 35.14Z" />
</svg>