<svg version="1.2" baseProfile="tiny-ps" xmlns="http://www.w3.org/2000/svg" viewBox="0 0 76 55" width="76" height="55">
	<title>Shape 1</title>
	<style>
		tspan { white-space:pre }
		.shp0 { fill: #a3bbc8 } 
		.shp1 { fill: #243f4d } 
	</style>
	<path id="Ellipse 2" class="shp0" d="M57.5 19.62C66.82 19.62 74.37 27.18 74.37 36.5C74.37 45.82 66.82 53.37 57.5 53.37C48.18 53.37 40.62 45.82 40.62 36.5C40.62 27.18 48.18 19.62 57.5 19.62Z" />
	<path id="Shape 1" class="shp1" d="M61.52 18.96L59.86 12.41C60.32 12.31 60.66 11.91 60.66 11.44L60.66 10.38C60.66 8.09 58.77 6.22 56.45 6.22L48.9 6.22L48.9 4.05C48.9 2.92 47.97 2 46.83 2L8.35 2C7.2 2 6.28 2.92 6.28 4.05L6.28 22C6.28 22.55 6.72 22.99 7.28 22.99C7.83 22.99 8.28 22.55 8.28 22L8.28 4.05C8.28 4.01 8.31 3.98 8.35 3.98L46.83 3.98C46.86 3.98 46.89 4.01 46.89 4.05L46.89 22C46.89 22.55 47.34 22.99 47.9 22.99C48.45 22.99 48.9 22.55 48.9 22L48.9 20.88L60.72 20.88C60.72 20.88 60.72 20.88 60.72 20.88C60.72 20.88 60.72 20.88 60.72 20.88C62.18 20.88 63.41 21.82 63.84 23.12L60.72 23.12C60.17 23.12 59.72 23.57 59.72 24.11L59.72 26.22C59.72 27.93 61.13 29.33 62.86 29.33L64 29.33L64 33.68L61.38 33.68C60.51 31.23 58.15 29.46 55.38 29.46C52.6 29.46 50.24 31.23 49.38 33.68L48.9 33.68L48.9 26.22C48.9 25.68 48.45 25.23 47.9 25.23C47.34 25.23 46.89 25.68 46.89 26.22L46.89 33.68L26.1 33.68C25.24 31.23 22.88 29.46 20.1 29.46C17.33 29.46 14.97 31.23 14.11 33.68L8.35 33.68C8.31 33.68 8.28 33.65 8.28 33.62L8.28 31.44L12.62 31.44C13.18 31.44 13.62 31 13.62 30.45C13.62 29.9 13.18 29.46 12.62 29.46L3 29.46C2.45 29.46 2 29.9 2 30.45C2 31 2.45 31.44 3 31.44L6.28 31.44L6.28 33.62C6.28 34.74 7.2 35.66 8.35 35.66L13.76 35.66C13.76 35.69 13.76 35.71 13.76 35.73C13.76 39.19 16.6 42 20.1 42C23.6 42 26.45 39.19 26.45 35.73C26.45 35.71 26.45 35.69 26.45 35.66L49.03 35.66C49.03 35.69 49.03 35.71 49.03 35.73C49.03 39.19 51.88 42 55.38 42C58.88 42 61.72 39.19 61.72 35.73C61.72 35.71 61.72 35.69 61.72 35.66L65 35.66C65.55 35.66 66 35.22 66 34.67L66 24.11C66 21.5 64.05 19.34 61.52 18.96ZM48.9 8.2L56.45 8.2C57.66 8.2 58.65 9.18 58.65 10.38L58.65 10.45L48.9 10.45L48.9 8.2ZM48.9 18.9L48.9 12.43L57.8 12.43L59.44 18.9L48.9 18.9L48.9 18.9ZM20.1 40.02C17.71 40.02 15.76 38.09 15.76 35.73C15.76 33.36 17.71 31.44 20.1 31.44C22.5 31.44 24.45 33.36 24.45 35.73C24.45 38.09 22.5 40.02 20.1 40.02ZM55.38 40.02C52.98 40.02 51.04 38.09 51.04 35.73C51.04 33.36 52.98 31.44 55.38 31.44C57.77 31.44 59.72 33.36 59.72 35.73C59.72 38.09 57.77 40.02 55.38 40.02ZM64 27.35L62.86 27.35C62.23 27.35 61.72 26.84 61.72 26.22L61.72 25.1L64 25.1L64 27.35L64 27.35ZM20.1 33.68C18.96 33.68 18.03 34.6 18.03 35.73C18.03 36.86 18.96 37.78 20.1 37.78C21.25 37.78 22.18 36.86 22.18 35.73C22.18 34.6 21.25 33.68 20.1 33.68ZM55.38 33.68C54.24 33.68 53.31 34.6 53.31 35.73C53.31 36.86 54.24 37.78 55.38 37.78C56.52 37.78 57.45 36.86 57.45 35.73C57.45 34.6 56.52 33.68 55.38 33.68ZM43.62 29.46L28.66 29.46C28.1 29.46 27.65 29.9 27.65 30.45C27.65 31 28.1 31.44 28.66 31.44L43.62 31.44C44.17 31.44 44.62 31 44.62 30.45C44.62 29.9 44.17 29.46 43.62 29.46ZM17.97 25.23L5.14 25.23C4.59 25.23 4.14 25.68 4.14 26.22C4.14 26.77 4.59 27.21 5.14 27.21L17.97 27.21C18.52 27.21 18.97 26.77 18.97 26.22C18.97 25.68 18.52 25.23 17.97 25.23ZM36.85 11.79C36.46 11.41 35.82 11.41 35.43 11.79L26.52 20.6L21.88 16.02C21.49 15.63 20.86 15.63 20.46 16.02C20.07 16.41 20.07 17.03 20.46 17.42L25.81 22.7C26 22.89 26.26 22.99 26.52 22.99C26.77 22.99 27.03 22.89 27.23 22.7L36.85 13.19C37.24 12.81 37.24 12.18 36.85 11.79Z" />
</svg>