<svg version="1.2" baseProfile="tiny-ps" xmlns="http://www.w3.org/2000/svg" viewBox="0 0 82 67" width="82" height="67">
	<title>Shape 1</title>
	<style>
		tspan { white-space:pre }
		.shp0 { fill: #a3bbc8 } 
		.shp1 { fill: #243f4d } 
	</style>
	<path id="Ellipse 2" class="shp0" d="M63.5 31.62C72.82 31.62 80.37 39.18 80.37 48.5C80.37 57.82 72.82 65.37 63.5 65.37C54.18 65.37 46.62 57.82 46.62 48.5C46.62 39.18 54.18 31.62 63.5 31.62Z" />
	<path id="Shape 1" class="shp1" d="M59.06 55.46C58.87 54.08 58.06 52.91 56.85 52.23L45.26 45.78C43.48 44.79 41.24 45.1 39.8 46.52L35.73 50.55C34.9 51.38 33.56 51.48 32.63 50.79C29.81 48.72 27.07 46.37 24.46 43.78C21.85 41.2 19.47 38.49 17.38 35.7C16.69 34.78 16.79 33.46 17.62 32.63L21.69 28.6C23.13 27.18 23.44 24.96 22.44 23.2L15.92 11.74C15.24 10.53 14.05 9.74 12.66 9.55C11.2 9.35 9.76 9.84 8.7 10.89L4.41 15.13C1.37 18.14 1.21 23.51 3.96 30.26C6.58 36.72 11.57 43.79 18.01 50.16C24.45 56.54 31.6 61.48 38.13 64.07C41.36 65.36 44.28 66 46.78 66C49.56 66 51.82 65.21 53.41 63.63L57.7 59.38C58.76 58.33 59.26 56.9 59.06 55.46ZM56.17 57.86L55.42 58.61L45.54 53.27C45.01 52.99 44.35 53.18 44.07 53.7C43.78 54.22 43.97 54.87 44.5 55.16L53.82 60.19L51.88 62.11C49.53 64.43 44.82 64.42 38.94 62.08C32.67 59.59 25.79 54.82 19.55 48.64C13.31 42.47 8.49 35.66 5.97 29.46C3.61 23.64 3.6 18.97 5.94 16.65L7.88 14.73L8.92 16.62C9.12 16.97 9.49 17.18 9.88 17.18C10.05 17.18 10.23 17.13 10.39 17.04C10.92 16.76 11.11 16.11 10.83 15.59L9.48 13.15L10.23 12.41C10.73 11.92 11.37 11.65 12.03 11.65C12.14 11.65 12.25 11.66 12.36 11.68C13.08 11.77 13.68 12.18 14.03 12.79L20.55 24.26C21.07 25.18 20.91 26.34 20.16 27.09L18.22 29L13.14 19.78C12.85 19.26 12.19 19.07 11.67 19.35C11.14 19.64 10.95 20.29 11.23 20.81L16.62 30.58L16.09 31.11C14.5 32.68 14.31 35.21 15.64 36.98C17.79 39.85 20.24 42.65 22.92 45.3C25.61 47.96 28.44 50.38 31.33 52.51C33.13 53.83 35.68 53.64 37.27 52.07L37.8 51.54L40.26 52.87C40.43 52.96 40.61 53 40.78 53C41.17 53 41.54 52.8 41.74 52.44C42.02 51.92 41.83 51.27 41.3 50.99L39.4 49.96L41.33 48.04C42.09 47.3 43.26 47.14 44.19 47.65L55.78 54.1C56.4 54.45 56.81 55.05 56.91 55.75C57.01 56.52 56.74 57.29 56.17 57.86ZM54.03 29.49L52.8 29.49L52.8 20.25C52.8 19.66 52.31 19.18 51.71 19.18C51.11 19.18 50.63 19.66 50.63 20.25L50.63 29.49L44.96 29.49L46.98 20.49C47.11 19.91 46.74 19.33 46.16 19.21C45.57 19.08 44.99 19.44 44.86 20.02L42.55 30.33C42.48 30.65 42.56 30.98 42.76 31.23C42.97 31.49 43.28 31.64 43.61 31.64L50.62 31.64L50.62 35.14C50.62 35.74 51.11 36.22 51.71 36.22C52.31 36.22 52.8 35.74 52.8 35.14L52.8 31.64L54.02 31.64C54.62 31.64 55.11 31.16 55.11 30.56C55.11 29.97 54.62 29.49 54.03 29.49ZM40.14 34.07L32.15 34.07C32.62 32.84 33.96 32.06 35.88 31.02C38.26 29.73 41.22 28.14 41.22 24.51C41.22 21.57 38.66 19.18 35.51 19.18C32.35 19.18 29.79 21.57 29.79 24.51C29.79 25.1 30.28 25.58 30.88 25.58C31.47 25.58 31.96 25.1 31.96 24.51C31.96 22.75 33.55 21.33 35.51 21.33C37.46 21.33 39.05 22.75 39.05 24.51C39.05 26.7 37.46 27.72 34.84 29.13C32.48 30.41 29.79 31.86 29.79 35.14C29.79 35.74 30.28 36.22 30.88 36.22L40.14 36.22C40.73 36.22 41.22 35.74 41.22 35.14C41.22 34.55 40.73 34.07 40.14 34.07ZM63.07 46.69L60.96 47.11C66.09 42.17 69 35.42 69 28.27C69 13.79 57.09 2 42.45 2C33.82 2 25.7 6.17 20.73 13.16C20.38 13.65 20.5 14.32 20.99 14.66C21.48 15 22.16 14.88 22.5 14.4C27.07 7.98 34.53 4.15 42.45 4.15C55.89 4.15 66.83 14.97 66.83 28.27C66.83 34.93 64.08 41.22 59.24 45.77L59.72 43.37C59.84 42.79 59.46 42.23 58.87 42.11C58.28 41.99 57.71 42.37 57.59 42.95L56.43 48.68C56.36 49.03 56.47 49.39 56.73 49.65C56.94 49.85 57.21 49.96 57.5 49.96C57.57 49.96 57.64 49.96 57.71 49.94L63.5 48.8C64.09 48.68 64.47 48.11 64.35 47.53C64.23 46.95 63.66 46.57 63.07 46.69ZM42.45 6.58C41.85 6.58 41.37 7.06 41.37 7.65L41.37 9.95C41.37 10.54 41.85 11.02 42.45 11.02C43.05 11.02 43.54 10.54 43.54 9.95L43.54 7.65C43.54 7.06 43.05 6.58 42.45 6.58ZM63.28 27.2L60.97 27.2C60.37 27.2 59.88 27.68 59.88 28.27C59.88 28.87 60.37 29.35 60.97 29.35L63.28 29.35C63.88 29.35 64.37 28.87 64.37 28.27C64.37 27.68 63.88 27.2 63.28 27.2ZM26.95 18.18L24.95 17.03C24.43 16.74 23.77 16.91 23.47 17.43C23.17 17.94 23.35 18.6 23.86 18.89L25.87 20.04C26.04 20.14 26.23 20.18 26.41 20.18C26.79 20.18 27.15 19.99 27.35 19.65C27.65 19.13 27.47 18.48 26.95 18.18ZM61.04 37.65L59.03 36.51C58.51 36.21 57.85 36.38 57.55 36.9C57.25 37.41 57.43 38.07 57.95 38.37L59.95 39.51C60.12 39.61 60.31 39.65 60.49 39.65C60.87 39.65 61.23 39.46 61.43 39.12C61.73 38.6 61.56 37.95 61.04 37.65ZM53.41 9.49C52.89 9.19 52.23 9.37 51.93 9.88L50.77 11.86C50.47 12.38 50.65 13.03 51.17 13.33C51.34 13.43 51.53 13.47 51.71 13.47C52.08 13.47 52.45 13.28 52.65 12.94L53.81 10.95C54.11 10.44 53.93 9.78 53.41 9.49ZM33.73 43.21C33.21 42.92 32.55 43.09 32.25 43.61L31.09 45.59C30.79 46.1 30.97 46.76 31.49 47.06C31.66 47.15 31.85 47.2 32.03 47.2C32.41 47.2 32.77 47.01 32.97 46.66L34.13 44.68C34.43 44.17 34.25 43.51 33.73 43.21ZM61.43 17.43C61.13 16.91 60.47 16.74 59.95 17.03L57.95 18.18C57.43 18.48 57.25 19.13 57.55 19.65C57.75 19.99 58.12 20.18 58.49 20.18C58.67 20.18 58.86 20.14 59.03 20.04L61.04 18.89C61.56 18.6 61.73 17.94 61.43 17.43ZM27.35 36.9C27.05 36.38 26.39 36.21 25.87 36.51L23.86 37.65C23.35 37.95 23.17 38.6 23.47 39.12C23.67 39.46 24.03 39.65 24.41 39.65C24.59 39.65 24.78 39.61 24.95 39.51L26.95 38.37C27.47 38.07 27.65 37.41 27.35 36.9ZM34.13 11.86L32.97 9.88C32.67 9.37 32.01 9.19 31.49 9.49C30.97 9.78 30.79 10.44 31.09 10.95L32.25 12.94C32.45 13.28 32.82 13.48 33.19 13.48C33.38 13.48 33.56 13.43 33.73 13.33C34.25 13.03 34.43 12.38 34.13 11.86ZM53.81 45.59L52.65 43.61C52.35 43.09 51.69 42.92 51.17 43.21C50.65 43.51 50.47 44.17 50.77 44.68L51.93 46.66C52.13 47.01 52.49 47.2 52.87 47.2C53.05 47.2 53.24 47.15 53.41 47.06C53.93 46.76 54.11 46.1 53.81 45.59Z" />
</svg>