<svg version="1.2" baseProfile="tiny-ps" xmlns="http://www.w3.org/2000/svg" viewBox="0 0 26 23" width="26" height="23">
	<title>Forma 1</title>
	<style>
		tspan { white-space:pre }
		.shp0 { fill: #ffffff } 
	</style>
	<path id="Forma 1" class="shp0" d="M2.81 3.63L5.15 3.63L8.47 15.67C8.57 16.02 8.89 16.26 9.26 16.26L19.47 16.26C19.8 16.26 20.08 16.07 20.22 15.78L23.93 7.22C24.04 6.96 24.02 6.67 23.87 6.44C23.72 6.21 23.46 6.07 23.19 6.07L11.9 6.07C11.45 6.07 11.09 6.44 11.09 6.89C11.09 7.34 11.45 7.71 11.9 7.71L21.94 7.71L18.93 14.63L9.87 14.63L6.54 2.6C6.45 2.24 6.12 2 5.76 2L2.81 2C2.37 2 2 2.37 2 2.81C2 3.26 2.37 3.63 2.81 3.63ZM8.48 22C9.5 22 10.33 21.17 10.33 20.15C10.33 19.13 9.5 18.3 8.48 18.3C7.47 18.3 6.64 19.13 6.64 20.15C6.64 21.17 7.47 22 8.48 22ZM20.01 22C20.05 22 20.11 22 20.15 22C20.64 21.96 21.09 21.74 21.41 21.36C21.74 20.99 21.89 20.52 21.86 20.02C21.79 19.01 20.91 18.23 19.89 18.3C18.87 18.37 18.11 19.27 18.18 20.27C18.25 21.24 19.05 22 20.01 22Z" />
</svg>