<svg version="1.2" baseProfile="tiny-ps" xmlns="http://www.w3.org/2000/svg" viewBox="0 0 26 21" width="26" height="21">
	<title>Forma 1</title>
	<style>
		tspan { white-space:pre }
		.shp0 { fill: #a3bbc8 } 
	</style>
	<path id="Forma 1" class="shp0" d="M23.99 7.82C23.91 6.27 23.25 4.81 22.14 3.72C21.02 2.61 19.55 2 18 2C15.69 2 14.05 3.78 13.18 4.74C13.13 4.8 13.07 4.86 13.02 4.91C12.99 4.88 12.96 4.85 12.94 4.82C12.13 3.9 10.46 2 8 2C6.45 2 4.98 2.61 3.86 3.72C2.75 4.81 2.09 6.27 2.01 7.82C1.93 9.36 2.32 10.7 3.28 12.16C4.14 13.47 6.38 15.53 8.04 16.91C9.75 18.32 11.99 20 13.01 20C14.04 20 16.28 18.32 17.97 16.91C19.62 15.54 21.85 13.48 22.72 12.16C23.37 11.17 24.1 9.79 23.99 7.82ZM21.61 11.43C20.98 12.39 19.2 14.17 17.18 15.85C14.78 17.85 13.35 18.64 13.01 18.67C12.67 18.64 11.24 17.84 8.82 15.83C6.79 14.15 5.01 12.38 4.39 11.43C3.59 10.22 3.27 9.13 3.33 7.89C3.47 5.37 5.56 3.32 8 3.32C9.86 3.32 11.21 4.86 11.94 5.69C12.37 6.18 12.6 6.45 13 6.45C13.41 6.45 13.67 6.16 14.15 5.64C14.94 4.77 16.27 3.32 18 3.32C20.44 3.32 22.53 5.37 22.67 7.89C22.74 9.15 22.42 10.2 21.61 11.43Z" />
</svg>