<svg version="1.2" baseProfile="tiny-ps" xmlns="http://www.w3.org/2000/svg" viewBox="0 0 24 24" width="24" height="24">
	<title>Forma 1</title>
	<style>
		tspan { white-space:pre }
		.shp0 { fill: #a3bbc8 } 
	</style>
	<path id="Forma 1" class="shp0" d="M21.45 18.8L16.86 14.21C16.18 15.27 15.27 16.18 14.21 16.86L18.8 21.45C19.53 22.18 20.72 22.18 21.45 21.45C22.18 20.72 22.18 19.53 21.45 18.8ZM17 9.5C17 5.36 13.64 2 9.5 2C5.36 2 2 5.36 2 9.5C2 13.64 5.36 17 9.5 17C13.64 17 17 13.64 17 9.5ZM9.5 15.12C6.4 15.12 3.87 12.6 3.87 9.5C3.87 6.4 6.4 3.87 9.5 3.87C12.6 3.87 15.12 6.4 15.12 9.5C15.12 12.6 12.6 15.12 9.5 15.12ZM5.12 9.5L6.37 9.5C6.37 7.78 7.78 6.37 9.5 6.37L9.5 5.12C7.09 5.12 5.12 7.09 5.12 9.5Z" />
</svg>