<svg version="1.2" baseProfile="tiny-ps" xmlns="http://www.w3.org/2000/svg" viewBox="0 0 17 15" width="17" height="15">
	<title>Shape 93</title>
	<style>
		tspan { white-space:pre }
		.shp0 { fill: #ffffff } 
	</style>
	<path id="Shape 93" class="shp0" d="M9.93 13.01C10.08 13.01 10.24 12.95 10.36 12.85L15.79 7.93C15.8 7.93 15.8 7.92 15.81 7.92C15.82 7.91 15.83 7.9 15.84 7.89L15.84 7.88L15.84 7.88C15.93 7.78 15.98 7.66 15.99 7.54C15.99 7.5 15.99 7.45 15.98 7.41C15.96 7.3 15.91 7.19 15.82 7.1C15.81 7.09 15.8 7.08 15.79 7.07L10.36 2.16C10.11 1.94 9.72 1.95 9.48 2.18C9.25 2.42 9.26 2.79 9.51 3.02L13.82 6.91L1.63 6.91C1.29 6.91 1.01 7.18 1.01 7.5C1.01 7.83 1.29 8.09 1.63 8.09L13.82 8.09L9.51 11.99C9.26 12.21 9.25 12.59 9.48 12.82C9.6 12.95 9.77 13.01 9.93 13.01Z" />
</svg>