<svg version="1.2" baseProfile="tiny-ps" xmlns="http://www.w3.org/2000/svg" viewBox="0 0 26 17" width="26" height="17">
	<title>Union 6</title>
	<style>
		tspan { white-space:pre }
		.shp0 { fill: #888888 } 
	</style>
	<path id="Union 6" class="shp0" d="M8.75 15.91C7.34 15.83 6.06 15.38 4.93 14.55C3.47 13.47 2.54 12.04 2.16 10.26C2.02 9.62 1.97 8.98 2.02 8.33C2.12 6.79 2.66 5.42 3.64 4.23C4.66 2.98 5.96 2.16 7.51 1.77C7.9 1.66 8.29 1.6 8.69 1.58C8.92 1.57 9.15 1.56 9.38 1.56C10.59 1.57 11.73 1.88 12.78 2.49C13.48 2.89 13.87 3.3 14.05 3.42C13.33 4.13 12.64 4.82 11.94 5.51C11.42 5.06 10.84 4.65 9.84 4.49C9.63 4.46 9.43 4.45 9.23 4.45C7.22 4.45 5.54 5.9 5.09 7.8C4.98 8.23 4.95 8.67 4.99 9.1C5.14 10.87 6.33 12.32 7.92 12.84C8.33 12.96 8.75 13.03 9.18 13.03C9.28 13.03 9.38 13.02 9.48 13.02C10.23 12.97 10.94 12.77 11.57 12.35C12.65 11.61 13 10.47 13 10.18L9.15 10.18C9.15 10.09 9.17 8.29 9.17 7.42L9.18 7.3L15.94 7.3C16.3 9.41 15.97 11.62 14.66 13.35C13.75 14.55 12.55 15.3 11.11 15.68C10.47 15.84 9.82 15.92 9.17 15.92C9.03 15.92 8.89 15.92 8.75 15.91ZM22.08 11.86L20.26 11.86L20.19 11.86L20.19 11.79L20.21 9.36L17.78 9.36L17.7 9.36L17.7 9.28L17.72 7.46L17.72 7.39L17.79 7.39L20.22 7.39L20.24 4.96L20.24 4.89L20.31 4.89L22.13 4.89L22.2 4.89L22.2 4.96L22.18 7.39L24.62 7.39L24.69 7.39L24.69 7.46L24.68 9.28L24.68 9.36L24.6 9.36L22.17 9.36L22.15 11.79L22.15 11.86L22.08 11.86Z" />
</svg>