<svg version="1.2" baseProfile="tiny-ps" xmlns="http://www.w3.org/2000/svg" viewBox="0 0 54 57" width="54" height="57">
	<title>Shape 1</title>
	<style>
		tspan { white-space:pre }
		.shp0 { opacity: 0.341;fill: #a3bbc8 } 
		.shp1 { fill: #a3bbc8 } 
	</style>
	<path id="Ellipse 1" class="shp0" d="M42.98 35.59C48.39 35.59 52.78 39.99 52.78 45.41C52.78 50.83 48.39 55.22 42.98 55.22C37.57 55.22 33.19 50.83 33.19 45.41C33.19 39.99 37.57 35.59 42.98 35.59Z" />
	<path id="Shape 1" class="shp1" d="M47.31 12.67C47.04 12.23 46.46 12.1 46.02 12.37C45.58 12.64 45.45 13.22 45.72 13.66C47.96 17.25 49.14 21.4 49.14 25.65C49.14 38.16 38.97 48.33 26.46 48.33C21.51 48.33 16.81 46.76 12.86 43.8C12.45 43.49 11.86 43.57 11.55 43.99C11.24 44.4 11.32 44.99 11.74 45.3C16.01 48.51 21.1 50.21 26.46 50.21C40 50.21 51.02 39.19 51.02 25.65C51.02 21.05 49.74 16.56 47.31 12.67ZM24.28 34.61L16.73 34.61L21.47 29.86C23.89 27.45 25.22 24.24 25.22 20.83C25.22 17.6 22.6 14.98 19.37 14.98C16.15 14.98 13.53 17.6 13.53 20.83C13.53 21.34 13.95 21.76 14.47 21.76C14.99 21.76 15.41 21.34 15.41 20.83C15.41 18.64 17.19 16.86 19.37 16.86C21.56 16.86 23.34 18.64 23.34 20.83C23.34 23.74 22.21 26.48 20.15 28.54L13.81 34.88C13.54 35.15 13.46 35.55 13.6 35.91C13.75 36.26 14.09 36.48 14.47 36.48L24.28 36.48C24.8 36.48 25.22 36.06 25.22 35.55C25.22 35.03 24.8 34.61 24.28 34.61ZM39.32 28.17L36.72 28.17L36.72 26.65C36.72 26.14 36.3 25.72 35.78 25.72C35.26 25.72 34.84 26.14 34.84 26.65L34.84 28.17L29.56 28.17L34.84 19.32L34.84 23.53C34.84 24.05 35.26 24.47 35.78 24.47C36.3 24.47 36.72 24.05 36.72 23.53L36.72 15.92C36.72 15.92 36.72 15.91 36.72 15.91C36.72 15.6 36.55 15.29 36.26 15.11C35.82 14.85 35.24 14.99 34.98 15.44L27.1 28.63C26.93 28.92 26.92 29.28 27.09 29.57C27.26 29.86 27.57 30.05 27.91 30.05L34.84 30.05L34.84 35.55C34.84 36.06 35.26 36.48 35.78 36.48C36.3 36.48 36.72 36.06 36.72 35.55L36.72 30.05L39.32 30.05C39.84 30.05 40.26 29.63 40.26 29.11C40.26 28.59 39.84 28.17 39.32 28.17ZM44.65 5.54C44.64 5.02 44.21 4.61 43.69 4.62C43.17 4.64 42.76 5.06 42.78 5.58L42.82 7.33C40.93 5.64 38.8 4.26 36.47 3.22C33.32 1.81 29.95 1.09 26.46 1.09C12.92 1.09 1.91 12.11 1.91 25.65C1.91 32.3 4.52 38.52 9.27 43.18C9.45 43.36 9.69 43.45 9.92 43.45C10.17 43.45 10.41 43.36 10.59 43.17C10.96 42.8 10.95 42.21 10.58 41.84C6.2 37.54 3.78 31.79 3.78 25.65C3.78 13.14 13.96 2.97 26.46 2.97C32.04 2.97 37.43 5.05 41.57 8.74L39.73 8.78C39.21 8.79 38.8 9.22 38.81 9.74C38.82 10.25 39.24 10.65 39.75 10.65C39.76 10.65 39.76 10.65 39.77 10.65L43.83 10.56C44.35 10.55 44.76 10.12 44.75 9.6L44.65 5.54Z" />
</svg>