<svg version="1.2" baseProfile="tiny-ps" xmlns="http://www.w3.org/2000/svg" viewBox="0 0 57 39" width="57" height="39">
	<title>Ellipse 1</title>
	<style>
		tspan { white-space:pre }
		.shp0 { fill: #a3bbc8 } 
		.shp1 { opacity: 0.341;fill: #a3bbc8 } 
	</style>
	<path id="delivery-truck" class="shp0" d="M10.82 6.33L4.69 6.33C4.26 6.33 3.91 6.69 3.91 7.12C3.91 7.55 4.26 7.91 4.69 7.91L10.82 7.91C11.25 7.91 11.6 7.55 11.6 7.12C11.6 6.69 11.25 6.33 10.82 6.33ZM11.34 17.34L5.74 17.34C5.3 17.34 4.95 17.69 4.95 18.13C4.95 18.56 5.3 18.91 5.74 18.91L11.34 18.91C11.77 18.91 12.13 18.56 12.13 18.13C12.13 17.69 11.77 17.34 11.34 17.34ZM9.25 12.62L2.6 12.62C2.16 12.62 1.81 12.97 1.81 13.41C1.81 13.84 2.16 14.2 2.6 14.2L9.25 14.2C9.68 14.2 10.03 13.84 10.03 13.41C10.03 12.97 9.68 12.62 9.25 12.62ZM9.25 23.63L8.6 23.63C8.17 23.63 7.82 23.98 7.82 24.42C7.82 24.85 8.17 25.2 8.6 25.2L9.25 25.2C9.68 25.2 10.03 24.85 10.03 24.42C10.03 23.98 9.68 23.63 9.25 23.63ZM5.98 23.63L2.6 23.63C2.16 23.63 1.81 23.98 1.81 24.42C1.81 24.85 2.16 25.2 2.6 25.2L5.98 25.2C6.42 25.2 6.77 24.85 6.77 24.42C6.77 23.98 6.42 23.63 5.98 23.63ZM42.84 3.77L36.19 3.77L36.19 2.35C36.19 1.92 35.83 1.57 35.4 1.57L23.23 1.57C22.79 1.57 22.44 1.92 22.44 2.35C22.44 2.79 22.79 3.14 23.23 3.14L34.61 3.14L34.61 20.36C34.61 20.79 34.97 21.15 35.4 21.15C35.83 21.15 36.19 20.79 36.19 20.36L36.19 5.34L42.84 5.34C46.43 5.34 49.35 8.26 49.35 11.86L49.35 25.15L47.35 25.15C46.98 22.78 44.92 20.96 42.44 20.96C39.97 20.96 37.91 22.78 37.53 25.15L36.19 25.15L36.19 24.03C36.19 23.59 35.83 23.24 35.4 23.24C34.97 23.24 34.61 23.59 34.61 24.03L34.61 25.15L26.28 25.15C25.9 22.78 23.84 20.96 21.37 20.96C18.89 20.96 16.83 22.78 16.46 25.15L14.82 25.15L14.82 3.14L20.08 3.14C20.52 3.14 20.87 2.79 20.87 2.35C20.87 1.92 20.52 1.57 20.08 1.57L14.04 1.57C13.6 1.57 13.25 1.92 13.25 2.35L13.25 25.94C13.25 26.37 13.6 26.73 14.04 26.73L16.46 26.73C16.83 29.1 18.89 30.92 21.37 30.92C23.84 30.92 25.9 29.1 26.28 26.73L37.53 26.73C37.91 29.1 39.97 30.92 42.44 30.92C44.92 30.92 46.98 29.1 47.35 26.73L50.14 26.73C50.57 26.73 50.92 26.37 50.92 25.94L50.92 11.86C50.92 7.4 47.3 3.77 42.84 3.77ZM21.37 29.35C19.49 29.35 17.96 27.82 17.96 25.94C17.96 24.06 19.49 22.53 21.37 22.53C23.24 22.53 24.77 24.06 24.77 25.94C24.77 27.82 23.24 29.35 21.37 29.35ZM42.44 29.35C40.57 29.35 39.04 27.82 39.04 25.94C39.04 25.94 39.04 25.94 39.04 25.94C39.04 25.94 39.04 25.94 39.04 25.94C39.04 24.06 40.57 22.53 42.44 22.53C44.32 22.53 45.85 24.06 45.85 25.94C45.85 27.82 44.32 29.35 42.44 29.35ZM42.84 6.91L38.54 6.91C38.11 6.91 37.76 7.27 37.76 7.7L37.76 15.09C37.76 15.52 38.11 15.88 38.54 15.88L47 15.88C47.43 15.88 47.78 15.52 47.78 15.09L47.78 11.86C47.78 9.13 45.57 6.91 42.84 6.91ZM46.21 14.3L39.33 14.3L39.33 8.49L42.84 8.49C44.7 8.49 46.21 10 46.21 11.86L46.21 14.3ZM21.37 23.91C20.25 23.91 19.34 24.82 19.34 25.94C19.34 27.06 20.25 27.97 21.37 27.97C22.48 27.97 23.39 27.06 23.39 25.94C23.39 24.82 22.48 23.91 21.37 23.91ZM21.37 26.4C21.12 26.4 20.91 26.19 20.91 25.94C20.91 25.69 21.12 25.49 21.37 25.49C21.62 25.49 21.82 25.69 21.82 25.94C21.82 26.19 21.62 26.4 21.37 26.4ZM42.44 23.91C41.33 23.91 40.42 24.82 40.42 25.94C40.42 27.06 41.33 27.97 42.44 27.97C43.56 27.97 44.47 27.06 44.47 25.94C44.47 24.82 43.56 23.91 42.44 23.91ZM42.44 26.4C42.19 26.4 41.99 26.19 41.99 25.94C41.99 25.69 42.19 25.49 42.44 25.49C42.69 25.49 42.9 25.69 42.9 25.94C42.9 26.19 42.69 26.4 42.44 26.4ZM47 18.03C46.56 18.03 46.21 18.38 46.21 18.81L46.21 20.8C46.21 21.24 46.56 21.59 47 21.59C47.43 21.59 47.78 21.24 47.78 20.8L47.78 18.81C47.78 18.38 47.43 18.03 47 18.03Z" />
	<path id="Ellipse 1" class="shp1" d="M45.75 18.41C51.17 18.41 55.56 22.79 55.56 28.2C55.56 33.61 51.17 38 45.75 38C40.33 38 35.94 33.61 35.94 28.2C35.94 22.79 40.33 18.41 45.75 18.41Z" />
</svg>