<svg version="1.2" baseProfile="tiny-ps" xmlns="http://www.w3.org/2000/svg" viewBox="0 0 56 55" width="56" height="55">
	<title>Ellipse 1</title>
	<style>
		tspan { white-space:pre }
		.shp0 { fill: #a3bbc8 } 
		.shp1 { opacity: 0.341;fill: #a3bbc8 } 
	</style>
	<path id="credit-card" class="shp0" d="M47.43 32.32C46.96 32.32 46.59 32.69 46.59 33.15L46.59 41.42C46.59 42.61 45.62 43.58 44.43 43.58L5.09 43.58C3.9 43.58 2.93 42.61 2.93 41.42L2.93 29.5L30.22 29.5C30.68 29.5 31.06 29.12 31.06 28.66C31.06 28.2 30.68 27.82 30.22 27.82L2.93 27.82L2.93 22.35L12.8 22.35C13.26 22.35 13.63 21.98 13.63 21.52C13.63 21.06 13.26 20.68 12.8 20.68L2.93 20.68L2.93 17.8C2.93 16.6 3.9 15.63 5.09 15.63L30.22 15.63C30.68 15.63 31.06 15.26 31.06 14.79C31.06 14.33 30.68 13.96 30.22 13.96L5.09 13.96C2.98 13.96 1.26 15.68 1.26 17.8L1.26 41.42C1.26 43.53 2.98 45.25 5.09 45.25L44.43 45.25C46.54 45.25 48.26 43.53 48.26 41.42L48.26 33.15C48.26 32.69 47.89 32.32 47.43 32.32ZM30.22 20.68L16 20.68C15.54 20.68 15.17 21.06 15.17 21.52C15.17 21.98 15.54 22.35 16 22.35L30.22 22.35C30.68 22.35 31.06 21.98 31.06 21.52C31.06 21.06 30.68 20.68 30.22 20.68ZM20.98 32.24L6.71 32.24C6.25 32.24 5.88 32.61 5.88 33.07C5.88 33.54 6.25 33.91 6.71 33.91L20.98 33.91C21.44 33.91 21.82 33.54 21.82 33.07C21.82 32.61 21.44 32.24 20.98 32.24ZM14.9 36.23L6.71 36.23C6.25 36.23 5.88 36.6 5.88 37.06C5.88 37.53 6.25 37.9 6.71 37.9L14.9 37.9C15.36 37.9 15.73 37.53 15.73 37.06C15.73 36.6 15.36 36.23 14.9 36.23ZM49.53 22.62C50 22.62 50.37 22.25 50.37 21.78L50.37 17.01C50.37 15.55 49.34 14.33 47.98 14.04L47.98 8.02C47.98 4.38 45.02 1.42 41.38 1.42C37.74 1.42 34.79 4.38 34.79 8.02L34.79 14.04C33.42 14.34 32.39 15.56 32.39 17.01L32.39 27.76C32.39 29.44 33.76 30.8 35.43 30.8L47.33 30.8C49.01 30.8 50.37 29.44 50.37 27.76L50.37 24.57C50.37 24.11 50 23.74 49.53 23.74C49.07 23.74 48.7 24.11 48.7 24.57L48.7 27.76C48.7 28.51 48.08 29.13 47.33 29.13L35.43 29.13C34.68 29.13 34.06 28.51 34.06 27.76L34.06 17.01C34.06 16.26 34.68 15.64 35.43 15.64L47.33 15.64C48.08 15.64 48.7 16.26 48.7 17.01L48.7 21.78C48.7 22.25 49.07 22.62 49.53 22.62ZM46.3 13.97L36.46 13.97L36.46 8.02C36.46 5.3 38.67 3.09 41.38 3.09C44.1 3.09 46.3 5.3 46.3 8.02L46.3 13.97L46.3 13.97ZM41.38 18.29C39.68 18.29 38.29 19.68 38.29 21.38C38.29 22.8 39.25 24 40.55 24.36L40.55 26.4C40.55 26.87 40.92 27.24 41.38 27.24C41.84 27.24 42.22 26.87 42.22 26.4L42.22 24.36C43.52 24 44.47 22.8 44.47 21.38C44.47 19.68 43.09 18.29 41.38 18.29ZM41.38 22.81C40.6 22.81 39.96 22.17 39.96 21.38C39.96 20.6 40.6 19.96 41.38 19.96C42.16 19.96 42.8 20.6 42.8 21.38C42.8 22.17 42.16 22.81 41.38 22.81Z" />
	<path id="Ellipse 1" class="shp1" d="M45 34.06C50.42 34.06 54.81 38.45 54.81 43.86C54.81 49.27 50.42 53.66 45 53.66C39.58 53.66 35.19 49.27 35.19 43.86C35.19 38.45 39.58 34.06 45 34.06Z" />
</svg>