<svg version="1.2" baseProfile="tiny-ps" xmlns="http://www.w3.org/2000/svg" viewBox="0 0 9 14" width="9" height="14">
	<title>Shape 21</title>
	<style>
		tspan { white-space:pre }
		.shp0 { fill: #262626 } 
	</style>
	<path id="Shape 21" class="shp0" d="M2.33 12.69C2.18 12.69 2.03 12.63 1.92 12.5C1.82 12.39 1.77 12.24 1.77 12.1C1.77 11.94 1.83 11.79 1.94 11.67L6.49 7.2L1.94 2.72C1.83 2.61 1.77 2.45 1.77 2.3C1.77 2.15 1.82 2.01 1.92 1.89C2.14 1.66 2.5 1.65 2.72 1.87L7.7 6.77C7.7 6.77 7.71 6.78 7.71 6.78C7.76 6.83 7.8 6.89 7.83 6.95L7.83 6.95C7.83 6.95 7.83 6.95 7.83 6.95C7.86 7.03 7.88 7.11 7.88 7.2C7.88 7.2 7.88 7.2 7.88 7.2C7.88 7.28 7.86 7.37 7.83 7.45L7.83 7.45C7.83 7.45 7.83 7.45 7.83 7.45C7.83 7.45 7.83 7.45 7.83 7.45C7.83 7.45 7.83 7.45 7.83 7.45C7.8 7.51 7.76 7.56 7.71 7.61C7.71 7.62 7.7 7.62 7.7 7.63L2.72 12.53C2.61 12.63 2.47 12.69 2.33 12.69Z" />
</svg>