<svg version="1.2" baseProfile="tiny-ps" xmlns="http://www.w3.org/2000/svg" viewBox="0 0 39 40" width="39" height="40">
	<title>Shape 1</title>
	<style>
		tspan { white-space:pre }
		.shp0 { fill: #a3bbc8 } 
	</style>
	<path id="Shape 1" fill-rule="evenodd" class="shp0" d="M2.98 38.96C1.89 38.96 1 38.07 1 36.97L1 9.69C1 9.45 1.1 9.22 1.27 9.05L8.74 1.51C8.91 1.33 9.14 1.24 9.38 1.24L28.47 1.24C29.56 1.24 30.44 2.13 30.44 3.23L30.44 6.1C30.44 6.61 30.04 7.01 29.54 7.01C29.04 7.01 28.64 6.61 28.64 6.1L28.64 3.23C28.64 3.14 28.56 3.06 28.47 3.06L10.28 3.06L10.28 8.61C10.28 9.71 9.4 10.6 8.31 10.6L2.81 10.6L2.81 36.97C2.81 37.06 2.88 37.14 2.98 37.14L28.47 37.14C28.56 37.14 28.64 37.06 28.64 36.97L28.64 23.07C28.64 22.56 29.04 22.16 29.54 22.16C30.04 22.16 30.44 22.56 30.44 23.07L30.44 36.97C30.44 38.07 29.56 38.96 28.47 38.96L2.98 38.96ZM4.08 8.78L8.31 8.78C8.4 8.78 8.48 8.71 8.48 8.61L8.48 4.35L4.08 8.78ZM8.06 32.49C7.56 32.49 7.16 32.08 7.16 31.58C7.16 31.08 7.56 30.67 8.06 30.67L12 30.67L13.39 25.6C13.43 25.45 13.51 25.32 13.62 25.2L13.64 25.19L8.06 25.19C7.56 25.19 7.16 24.78 7.16 24.28C7.16 23.78 7.56 23.37 8.06 23.37L15.44 23.37L20.87 17.89L8.06 17.89C7.56 17.89 7.16 17.48 7.16 16.98C7.16 16.48 7.56 16.07 8.06 16.07L22.68 16.07L31.11 7.56C32.3 6.36 34.24 6.36 35.43 7.56L36.49 8.64C37.68 9.84 37.68 11.79 36.49 12.99L19 30.63C18.89 30.74 18.76 30.82 18.61 30.87C18.61 30.87 12.92 32.46 12.91 32.46C12.88 32.47 12.68 32.49 12.68 32.49L8.06 32.49ZM13.98 30.27L16.63 29.53L14.72 27.6L13.98 30.27ZM15.54 25.85L18.37 28.7L32.8 14.14L29.97 11.29L15.54 25.85ZM32.38 8.85L31.25 10L34.08 12.85L35.21 11.7C35.7 11.21 35.7 10.41 35.21 9.92L34.15 8.85C33.91 8.61 33.59 8.48 33.27 8.48C32.95 8.48 32.63 8.61 32.38 8.85Z" />
</svg>