<svg version="1.2" baseProfile="tiny-ps" xmlns="http://www.w3.org/2000/svg" viewBox="0 0 46 42" width="46" height="42">
	<title>Shape 1</title>
	<style>
		tspan { white-space:pre }
		.shp0 { fill: #a3bbc8 } 
	</style>
	<path id="Shape 1" fill-rule="evenodd" class="shp0" d="M44.13 16.8C44.13 19.95 41.83 22.56 38.87 22.95L38.87 30.08C38.87 30.86 38.48 31.57 37.82 31.97C37.48 32.17 37.11 32.27 36.74 32.27C36.38 32.27 36.02 32.18 35.69 31.99C29.73 28.56 23.28 26.47 16.51 25.74L20.66 37.53C20.9 38.19 20.8 38.93 20.41 39.51C20.01 40.09 19.37 40.44 18.68 40.44L13.82 40.44C12.94 40.44 12.14 39.87 11.84 39.01L6.99 25.29C5.96 24.82 5.21 23.82 5.08 22.62L3.72 22.62C2.23 22.62 1.01 21.38 1.01 19.85L1.01 13.75C1.01 12.22 2.23 10.98 3.72 10.98L5.08 10.98C5.27 9.32 6.64 8.03 8.31 8.03C8.31 8.03 14.93 8 14.99 8C22.32 7.44 29.29 5.29 35.69 1.61C36.36 1.23 37.16 1.24 37.82 1.64C38.48 2.03 38.87 2.74 38.87 3.52L38.87 10.65C41.83 11.04 44.13 13.65 44.13 16.8ZM5.05 13.12L3.72 13.12C3.37 13.12 3.1 13.4 3.1 13.75L3.1 19.85C3.1 20.2 3.37 20.48 3.72 20.48L5.05 20.48L5.05 13.12ZM8.23 23.43C8.26 23.43 13.98 23.43 13.98 23.43L13.98 10.17L8.31 10.17C7.66 10.17 7.14 10.71 7.14 11.37L7.14 22.23C7.14 22.72 7.42 23.14 7.83 23.33C7.98 23.39 8.02 23.4 8.23 23.43ZM14.23 25.57L9.31 25.57L13.79 38.28C13.8 38.29 13.81 38.3 13.82 38.3L18.68 38.3C18.69 38.3 18.69 38.3 18.7 38.29C18.71 38.27 18.71 38.27 18.71 38.26L14.23 25.57ZM36.79 3.52C36.79 3.51 36.79 3.49 36.76 3.48C36.74 3.46 36.72 3.47 36.71 3.48C30.31 7.16 23.36 9.37 16.06 10.05L16.06 23.55C23.36 24.23 30.31 26.44 36.71 30.12C36.72 30.13 36.74 30.14 36.76 30.12C36.79 30.11 36.79 30.09 36.79 30.08L36.79 3.52ZM42.05 16.8C42.05 14.83 40.68 13.19 38.87 12.81L38.87 20.79C40.68 20.41 42.05 18.77 42.05 16.8Z" />
</svg>