<svg version="1.2" baseProfile="tiny-ps" xmlns="http://www.w3.org/2000/svg" viewBox="0 0 45 44" width="45" height="44">
	<title>Shape 1</title>
	<style>
		tspan { white-space:pre }
		.shp0 { fill: #a3bbc8 } 
	</style>
	<path id="Shape 1" fill-rule="evenodd" class="shp0" d="M13.9 33.7C13.9 32.38 14.2 31.14 14.73 30.02L1.51 9.58C1.28 9.22 1.32 8.74 1.62 8.44L7.94 2.02C8.11 1.85 8.34 1.76 8.57 1.76L35.92 1.76C36.16 1.76 36.38 1.85 36.55 2.02L42.87 8.44C43.17 8.74 43.22 9.22 42.98 9.58L29.76 30.03C30.29 31.14 30.59 32.38 30.59 33.7C30.59 38.37 26.85 42.17 22.25 42.17C17.65 42.17 13.9 38.37 13.9 33.7ZM15.69 33.7C15.69 37.37 18.63 40.36 22.25 40.36C25.86 40.36 28.8 37.37 28.8 33.7C28.8 30.02 25.86 27.03 22.25 27.03C18.63 27.03 15.69 30.02 15.69 33.7ZM24.24 25.47C26.02 25.91 27.59 26.94 28.71 28.35L40.58 9.99L34.24 9.99L24.24 25.47ZM15.78 28.35C16.91 26.94 18.47 25.91 20.26 25.47L10.25 9.99L3.91 9.99L15.78 28.35ZM22.23 25.22C22.24 25.22 22.24 25.22 22.25 25.22C22.25 25.22 22.26 25.22 22.26 25.22L32.11 9.99L12.38 9.99L22.23 25.22ZM4.41 8.17C4.42 8.17 10.74 8.17 10.75 8.17C10.75 8.17 33.76 8.17 33.76 8.17L40.08 8.17L35.55 3.57L8.94 3.57L4.41 8.17ZM21.66 37.09L21.66 32.19L21.13 32.19C20.64 32.19 20.24 31.78 20.24 31.28C20.24 30.78 20.64 30.38 21.13 30.38L22.55 30.38C23.04 30.38 23.44 30.78 23.44 31.28L23.44 37.09C23.44 37.59 23.04 38 22.55 38C22.06 38 21.66 37.59 21.66 37.09Z" />
</svg>