<svg version="1.2" baseProfile="tiny-ps" xmlns="http://www.w3.org/2000/svg" viewBox="0 0 25 12" width="25" height="12">
	<title>Shape 1</title>
	<style>
		tspan { white-space:pre }
		.shp0 { fill: #ffffff } 
	</style>
	<path id="Shape 1" class="shp0" d="M2.3 7.47L2.29 7.47L19.24 7.47L19.14 10.33C19.09 10.38 19.06 10.46 19.06 10.53C19.06 10.61 19.09 10.68 19.14 10.74L19.32 10.91C19.37 10.97 19.44 11 19.52 11C19.6 11 19.67 10.97 19.72 10.91L23.92 6.7C23.97 6.65 24 6.57 24 6.5C24 6.42 23.97 6.35 23.92 6.29L19.72 2.08C19.67 2.03 19.6 2 19.52 2C19.44 2 19.37 2.03 19.32 2.08L19.14 2.25C19.09 2.31 19.06 2.38 19.06 2.46C19.06 2.53 19.09 2.6 19.14 2.66L19.26 5.52L2.29 5.52C2.13 5.52 2 5.66 2 5.82L2 7.19C2 7.35 2.14 7.47 2.3 7.47Z" />
</svg>